<svg id="svg" version="1.1" xmlns="http://www.w3.org/2000/svg" xmlns:xlink="http://www.w3.org/1999/xlink" width="400" height="514.2857142857142" viewBox="0, 0, 400,514.2857142857142"><g id="svgg"><path id="path0" d="M244.554 1.042 C 244.300 2.054,244.731 3.297,248.179 11.496 C 257.591 33.876,249.432 52.606,230.802 51.386 C 221.519 50.778,219.773 51.231,215.253 55.415 C 207.456 62.633,200.752 73.775,196.728 86.200 C 194.247 93.861,196.290 106.287,202.275 119.947 C 206.681 130.002,207.096 131.041,207.743 133.626 C 210.508 144.675,205.309 160.183,193.617 175.760 C 186.819 184.816,186.706 185.170,187.801 194.004 C 190.246 213.746,188.289 222.228,170.396 269.400 C 168.143 275.340,165.533 282.270,164.595 284.800 C 163.657 287.330,161.802 292.280,160.472 295.800 C 159.143 299.320,157.430 303.910,156.666 306.000 C 154.764 311.207,151.337 320.454,151.010 321.263 C 150.799 321.786,151.489 322.328,154.271 323.822 C 163.975 329.034,172.000 333.849,172.000 334.460 C 172.000 335.195,163.370 332.301,155.029 328.769 C 151.964 327.471,149.422 326.452,149.380 326.505 C 149.070 326.885,132.174 378.850,126.003 398.400 C 123.537 406.210,120.923 414.490,120.193 416.800 C 119.462 419.110,117.937 424.060,116.803 427.800 C 115.669 431.540,114.102 436.670,113.321 439.200 C 112.539 441.730,111.222 446.140,110.394 449.000 C 109.566 451.860,107.954 457.350,106.812 461.200 C 104.601 468.653,102.350 476.712,98.154 492.200 C 96.723 497.480,94.843 504.341,93.976 507.447 C 93.109 510.553,92.400 513.298,92.400 513.547 C 92.400 513.847,93.485 514.000,95.600 514.000 C 100.184 514.000,99.648 514.702,111.190 493.600 C 122.766 472.436,143.339 431.111,154.103 407.400 C 155.202 404.980,157.087 400.840,158.292 398.200 C 169.212 374.275,182.857 342.710,189.675 325.600 C 196.821 307.668,201.200 296.374,206.426 282.400 C 208.195 277.670,209.970 272.990,210.371 272.000 C 214.367 262.143,214.123 258.077,208.796 245.800 C 203.953 234.637,202.747 229.144,202.695 218.000 C 202.593 196.354,212.012 163.228,223.111 146.200 C 231.489 133.346,251.173 120.000,261.753 120.000 C 263.655 120.000,264.745 119.812,265.194 119.405 C 265.778 118.877,266.025 118.899,267.410 119.605 C 275.221 123.588,280.607 113.828,273.563 108.455 C 270.881 106.409,270.105 104.027,269.184 95.000 C 268.362 86.940,266.061 76.570,262.617 65.400 C 259.352 54.812,259.103 52.170,260.440 42.362 C 262.626 26.333,259.561 12.197,251.740 2.232 L 249.988 0.000 247.402 0.000 C 244.949 0.000,244.802 0.054,244.554 1.042 M237.072 61.428 C 262.961 66.775,269.193 103.784,246.347 116.499 C 225.300 128.213,201.589 110.885,206.166 87.135 C 209.654 69.032,222.432 58.404,237.072 61.428 M328.534 155.854 C 325.681 157.704,325.516 158.295,325.833 165.507 C 326.738 186.110,308.385 216.321,288.085 227.643 C 265.591 240.188,239.595 248.776,223.100 249.111 C 218.315 249.209,214.402 249.403,214.405 249.544 C 214.407 249.685,214.947 251.584,215.605 253.765 C 217.871 261.284,217.536 263.201,210.804 281.200 C 209.447 284.830,207.735 289.420,207.000 291.400 C 206.265 293.380,204.487 298.052,203.048 301.782 C 201.608 305.512,200.487 308.620,200.555 308.688 C 200.687 308.820,207.472 301.650,219.588 288.574 C 236.801 269.998,241.692 265.857,258.885 255.301 C 274.040 245.996,289.494 239.384,299.374 237.977 C 304.009 237.317,311.442 238.793,320.557 242.185 C 341.361 249.926,347.497 251.146,356.800 249.393 C 382.698 244.512,400.855 223.026,394.250 205.075 C 390.398 194.603,382.753 187.855,363.800 178.198 C 350.584 171.464,349.115 170.346,338.400 158.862 L 334.600 154.789 332.380 154.794 C 330.666 154.799,329.790 155.040,328.534 155.854 M359.800 186.588 C 392.604 191.916,391.884 230.527,358.822 239.074 C 330.731 246.335,308.911 219.063,325.387 197.285 C 332.190 188.294,345.270 184.228,359.800 186.588 M153.103 302.974 C 152.517 303.710,148.113 308.802,143.318 314.290 C 132.157 327.064,128.819 330.924,122.985 337.800 C 120.372 340.880,115.162 347.000,111.408 351.400 C 86.482 380.614,58.878 415.885,34.081 450.200 C 21.147 468.099,18.928 471.632,19.565 473.309 C 20.891 476.796,22.815 476.744,27.151 473.104 C 37.423 464.478,56.959 447.195,71.600 433.781 C 75.230 430.456,82.790 423.536,88.400 418.404 C 99.825 407.953,108.371 399.936,116.391 392.145 C 119.366 389.255,123.079 385.654,124.642 384.143 C 126.205 382.631,127.615 380.946,127.775 380.397 C 128.254 378.752,139.384 344.711,143.797 331.390 C 147.607 319.892,150.355 312.185,153.263 304.849 C 154.611 301.447,154.583 301.120,153.103 302.974 M177.563 302.986 C 181.301 304.940,183.212 309.850,181.627 313.432 C 177.827 322.022,165.486 319.555,165.486 310.205 C 165.486 304.204,172.206 300.187,177.563 302.986 " stroke="none" fill="#050505" fill-rule="evenodd"></path><path id="path1" d="M0.000 257.000 L 0.000 514.000 45.934 514.000 L 91.869 514.000 93.331 508.500 C 99.294 486.076,108.044 454.905,110.986 445.600 C 111.508 443.950,112.863 439.540,113.996 435.800 C 118.146 422.107,120.120 415.682,121.798 410.400 C 122.741 407.430,124.511 401.850,125.731 398.000 C 126.951 394.150,129.062 387.490,130.423 383.200 C 133.385 373.857,138.454 358.292,142.993 344.600 C 144.816 339.100,146.891 332.752,147.604 330.493 C 149.154 325.580,148.971 325.729,151.873 327.025 C 156.201 328.958,164.186 332.076,166.659 332.800 C 168.012 333.196,169.542 333.651,170.059 333.810 L 171.000 334.099 170.000 333.314 C 168.304 331.982,154.415 324.155,152.091 323.221 C 150.042 322.398,149.959 322.795,155.003 309.400 C 156.245 306.100,157.678 302.230,158.187 300.800 C 158.696 299.370,161.222 292.620,163.801 285.800 C 166.380 278.980,169.262 271.330,170.204 268.800 C 171.147 266.270,173.035 261.230,174.399 257.600 C 182.524 235.985,184.849 228.952,186.383 221.349 C 188.551 210.598,188.794 203.509,187.332 193.600 C 186.202 185.939,186.808 184.006,192.781 176.227 C 199.479 167.501,202.923 161.312,205.359 153.620 C 209.511 140.508,209.134 135.732,202.894 122.397 C 198.713 113.462,195.633 102.490,195.316 95.400 C 194.792 83.703,204.717 63.921,215.930 54.314 C 219.781 51.016,219.846 51.000,229.603 51.000 L 238.206 51.000 240.915 49.669 C 247.385 46.490,250.874 40.373,251.451 31.200 C 251.937 23.469,250.697 18.407,244.998 4.846 C 244.361 3.331,243.993 1.827,244.093 1.146 L 244.261 0.000 122.131 0.000 L 0.000 0.000 0.000 257.000 M251.529 1.380 C 259.592 10.564,262.796 24.740,260.800 42.400 C 259.628 52.769,259.853 55.306,262.755 64.471 C 266.416 76.034,268.086 83.599,269.583 95.400 C 270.741 104.529,271.456 106.641,273.969 108.347 C 281.051 113.153,275.285 123.759,267.607 120.049 C 266.410 119.471,265.720 119.334,265.388 119.610 C 265.122 119.830,263.217 120.180,261.153 120.387 C 255.486 120.956,252.540 122.020,246.417 125.714 C 227.199 137.305,218.394 149.797,210.197 177.102 C 201.019 207.675,200.573 226.431,208.595 244.400 C 214.544 257.724,214.828 261.061,210.912 271.600 C 203.022 292.836,192.213 320.775,189.383 327.250 C 188.843 328.488,188.400 329.604,188.400 329.732 C 188.400 329.860,187.614 331.817,186.654 334.082 C 185.694 336.347,183.695 341.080,182.211 344.600 C 177.669 355.381,175.528 360.339,168.395 376.600 C 166.368 381.220,163.765 387.070,162.610 389.600 C 161.456 392.130,159.743 395.910,158.804 398.000 C 145.404 427.830,119.512 480.033,108.562 499.300 C 107.593 501.005,105.959 503.885,104.932 505.700 C 103.904 507.515,102.275 510.125,101.312 511.500 L 99.560 514.000 249.780 514.000 L 400.000 514.000 400.000 257.000 L 400.000 0.000 325.159 0.000 L 250.317 0.000 251.529 1.380 M227.600 61.605 C 214.511 64.317,203.812 82.362,206.362 97.426 C 211.978 130.603,261.531 125.022,259.863 91.400 C 258.903 72.048,243.932 58.222,227.600 61.605 M334.640 154.815 C 335.880 155.287,338.681 158.097,342.200 162.400 C 347.079 168.365,351.254 171.325,364.000 177.857 C 384.074 188.143,392.410 195.979,395.258 207.239 C 399.674 224.703,382.075 244.694,357.957 249.609 C 348.127 251.612,341.868 250.429,319.800 242.397 C 302.264 236.014,292.736 237.342,270.000 249.335 C 251.582 259.050,238.676 268.605,227.057 281.128 C 223.726 284.718,219.020 289.783,216.600 292.383 C 214.180 294.984,209.427 300.103,206.038 303.761 C 202.650 307.418,199.803 310.336,199.713 310.246 C 199.523 310.056,201.205 305.249,203.577 299.200 C 206.535 291.659,207.507 289.101,210.189 281.800 C 211.644 277.840,213.578 272.620,214.488 270.200 C 216.735 264.221,217.004 259.555,215.401 254.400 C 214.820 252.530,214.249 250.529,214.134 249.952 L 213.925 248.905 222.862 248.677 C 235.953 248.344,246.857 245.582,265.800 237.802 C 292.885 226.678,302.471 219.259,313.875 200.600 C 323.407 185.002,326.130 175.704,325.189 161.964 C 324.827 156.683,329.753 152.957,334.640 154.815 M343.200 187.185 C 313.560 193.534,312.054 229.013,341.000 239.006 C 352.991 243.146,371.864 236.089,379.555 224.591 C 393.493 203.751,371.501 181.122,343.200 187.185 M153.574 305.032 C 152.682 307.434,151.348 310.930,150.612 312.800 C 148.828 317.327,133.619 363.178,128.737 378.746 L 127.813 381.691 115.007 393.973 C 98.960 409.362,79.039 427.692,50.400 453.419 C 42.266 460.726,30.717 470.711,26.117 474.414 C 22.926 476.983,22.386 477.056,20.389 475.190 C 18.260 473.201,18.617 471.712,22.605 465.933 C 24.478 463.220,26.503 460.284,27.105 459.409 C 28.066 458.013,31.344 453.417,38.215 443.830 C 40.394 440.789,57.792 417.540,62.184 411.800 C 64.705 408.504,70.872 400.644,79.600 389.600 C 93.280 372.291,105.445 357.660,126.617 333.051 C 130.568 328.460,134.430 323.938,135.200 323.003 C 138.305 319.234,154.946 300.413,155.067 300.534 C 155.139 300.605,154.467 302.630,153.574 305.032 M171.050 302.967 C 166.005 304.834,164.164 310.731,167.331 314.882 C 172.806 322.061,183.940 316.879,181.449 308.311 C 180.198 304.007,175.191 301.434,171.050 302.967 " stroke="none" fill="#fbfbfb" fill-rule="evenodd"></path><path id="path2" d="M244.156 0.571 C 244.035 0.885,244.004 1.560,244.086 2.071 C 244.195 2.754,244.288 2.604,244.437 1.500 C 244.647 -0.053,244.536 -0.419,244.156 0.571 M232.505 51.487 C 233.114 51.579,234.014 51.577,234.505 51.482 C 234.997 51.387,234.500 51.311,233.400 51.314 C 232.300 51.317,231.897 51.395,232.505 51.487 M215.785 68.100 L 213.800 70.200 215.900 68.215 C 217.851 66.371,218.183 66.000,217.885 66.000 C 217.822 66.000,216.877 66.945,215.785 68.100 M251.183 69.300 C 252.164 70.345,253.019 71.200,253.083 71.200 C 253.384 71.200,253.066 70.841,251.300 69.183 L 249.400 67.400 251.183 69.300 M260.131 93.000 C 260.133 94.540,260.205 95.121,260.292 94.291 C 260.379 93.461,260.377 92.201,260.289 91.491 C 260.200 90.781,260.129 91.460,260.131 93.000 M252.185 111.700 L 250.200 113.800 252.300 111.815 C 254.251 109.971,254.583 109.600,254.285 109.600 C 254.222 109.600,253.277 110.545,252.185 111.700 M213.400 112.400 C 214.259 113.280,215.052 114.000,215.162 114.000 C 215.272 114.000,214.659 113.280,213.800 112.400 C 212.941 111.520,212.148 110.800,212.038 110.800 C 211.928 110.800,212.541 111.520,213.400 112.400 M260.700 120.282 C 261.195 120.378,262.005 120.378,262.500 120.282 C 262.995 120.187,262.590 120.109,261.600 120.109 C 260.610 120.109,260.205 120.187,260.700 120.282 M208.128 139.200 C 208.128 140.630,208.201 141.215,208.289 140.500 C 208.378 139.785,208.378 138.615,208.289 137.900 C 208.201 137.185,208.128 137.770,208.128 139.200 M325.737 169.000 C 325.739 170.760,325.809 171.430,325.893 170.489 C 325.978 169.549,325.977 168.109,325.891 167.289 C 325.805 166.470,325.736 167.240,325.737 169.000 M186.931 188.600 C 186.933 190.140,187.005 190.721,187.092 189.891 C 187.179 189.061,187.177 187.801,187.089 187.091 C 187.000 186.381,186.929 187.060,186.931 188.600 M350.112 186.295 C 351.164 186.377,352.784 186.376,353.712 186.292 C 354.640 186.208,353.780 186.141,351.800 186.142 C 349.820 186.143,349.060 186.212,350.112 186.295 M327.785 194.900 L 325.800 197.000 327.900 195.015 C 329.851 193.171,330.183 192.800,329.885 192.800 C 329.822 192.800,328.877 193.745,327.785 194.900 M376.783 194.900 C 377.764 195.945,378.619 196.800,378.683 196.800 C 378.984 196.800,378.666 196.441,376.900 194.783 L 375.000 193.000 376.783 194.900 M188.093 200.000 C 188.093 200.770,188.175 201.085,188.276 200.700 C 188.376 200.315,188.376 199.685,188.276 199.300 C 188.175 198.915,188.093 199.230,188.093 200.000 M188.101 209.400 C 188.105 210.280,188.187 210.593,188.283 210.095 C 188.379 209.598,188.375 208.878,188.275 208.495 C 188.175 208.113,188.096 208.520,188.101 209.400 M202.909 212.800 C 202.909 213.790,202.987 214.195,203.082 213.700 C 203.178 213.205,203.178 212.395,203.082 211.900 C 202.987 211.405,202.909 211.810,202.909 212.800 M202.914 221.800 C 202.917 222.900,202.995 223.303,203.087 222.695 C 203.179 222.086,203.177 221.186,203.082 220.695 C 202.987 220.203,202.911 220.700,202.914 221.800 M375.600 229.400 C 374.628 230.390,373.923 231.200,374.033 231.200 C 374.143 231.200,375.028 230.390,376.000 229.400 C 376.972 228.410,377.677 227.600,377.567 227.600 C 377.457 227.600,376.572 228.410,375.600 229.400 M383.375 236.900 L 382.200 238.200 383.500 237.025 C 384.215 236.379,384.800 235.794,384.800 235.725 C 384.800 235.416,384.470 235.688,383.375 236.900 M300.691 238.289 C 301.401 238.377,302.661 238.379,303.491 238.292 C 304.321 238.205,303.740 238.133,302.200 238.131 C 300.660 238.129,299.981 238.200,300.691 238.289 M348.300 240.282 C 348.795 240.378,349.605 240.378,350.100 240.282 C 350.595 240.187,350.190 240.109,349.200 240.109 C 348.210 240.109,347.805 240.187,348.300 240.282 M270.700 248.629 C 269.205 249.440,269.296 249.778,270.800 249.000 C 271.460 248.659,272.000 248.294,272.000 248.190 C 272.000 247.932,271.957 247.947,270.700 248.629 M216.700 249.097 C 218.295 249.173,220.905 249.173,222.500 249.097 C 224.095 249.021,222.790 248.959,219.600 248.959 C 216.410 248.959,215.105 249.021,216.700 249.097 M216.524 261.000 C 216.526 262.320,216.601 262.812,216.690 262.093 C 216.779 261.374,216.777 260.294,216.686 259.693 C 216.595 259.092,216.522 259.680,216.524 261.000 M236.575 271.300 L 235.400 272.600 236.700 271.425 C 237.415 270.779,238.000 270.194,238.000 270.125 C 238.000 269.816,237.670 270.088,236.575 271.300 M227.978 279.900 L 226.600 281.400 228.100 280.022 C 229.496 278.738,229.784 278.400,229.478 278.400 C 229.412 278.400,228.737 279.075,227.978 279.900 M223.186 285.100 L 221.000 287.400 223.300 285.214 C 225.437 283.182,225.783 282.800,225.486 282.800 C 225.424 282.800,224.389 283.835,223.186 285.100 M216.581 292.100 L 215.000 293.800 216.700 292.219 C 218.281 290.748,218.584 290.400,218.281 290.400 C 218.216 290.400,217.451 291.165,216.581 292.100 M212.000 297.000 C 211.028 297.990,210.323 298.800,210.433 298.800 C 210.543 298.800,211.428 297.990,212.400 297.000 C 213.372 296.010,214.077 295.200,213.967 295.200 C 213.857 295.200,212.972 296.010,212.000 297.000 M206.175 303.300 L 205.000 304.600 206.300 303.425 C 207.015 302.779,207.600 302.194,207.600 302.125 C 207.600 301.816,207.270 302.088,206.175 303.300 M167.775 304.900 L 166.600 306.200 167.900 305.025 C 169.112 303.930,169.384 303.600,169.075 303.600 C 169.006 303.600,168.421 304.185,167.775 304.900 M201.615 308.184 C 200.877 308.946,200.152 309.494,200.003 309.402 C 199.855 309.310,199.733 309.497,199.733 309.818 C 199.733 310.564,199.565 310.674,201.600 308.600 C 202.572 307.610,203.274 306.800,203.162 306.800 C 203.049 306.800,202.353 307.423,201.615 308.184 M140.175 317.300 L 139.000 318.600 140.300 317.425 C 141.512 316.330,141.784 316.000,141.475 316.000 C 141.406 316.000,140.821 316.585,140.175 317.300 M136.975 320.900 L 135.800 322.200 137.100 321.025 C 138.312 319.930,138.584 319.600,138.275 319.600 C 138.206 319.600,137.621 320.185,136.975 320.900 M123.809 385.199 L 119.819 389.400 123.992 385.315 C 126.287 383.069,128.082 381.178,127.982 381.114 C 127.882 381.050,126.004 382.888,123.809 385.199 M111.789 396.900 L 109.000 399.800 111.900 397.011 C 114.594 394.420,114.983 394.000,114.689 394.000 C 114.628 394.000,113.323 395.305,111.789 396.900 M103.988 404.300 L 101.400 407.000 104.100 404.412 C 106.608 402.007,106.983 401.600,106.688 401.600 C 106.627 401.600,105.412 402.815,103.988 404.300 M155.665 404.217 C 154.995 405.688,155.123 406.002,155.847 404.665 C 156.186 404.040,156.388 403.454,156.296 403.363 C 156.205 403.271,155.921 403.656,155.665 404.217 M97.978 409.900 L 96.600 411.400 98.100 410.022 C 99.496 408.738,99.784 408.400,99.478 408.400 C 99.412 408.400,98.737 409.075,97.978 409.900 M92.800 414.600 C 91.828 415.590,91.123 416.400,91.233 416.400 C 91.343 416.400,92.228 415.590,93.200 414.600 C 94.172 413.610,94.877 412.800,94.767 412.800 C 94.657 412.800,93.772 413.610,92.800 414.600 M150.865 414.617 C 150.195 416.088,150.323 416.402,151.047 415.065 C 151.386 414.440,151.588 413.854,151.496 413.763 C 151.405 413.671,151.121 414.056,150.865 414.617 M87.781 419.300 L 86.200 421.000 87.900 419.419 C 89.481 417.948,89.784 417.600,89.481 417.600 C 89.416 417.600,88.651 418.365,87.781 419.300 M147.665 421.417 C 146.995 422.888,147.123 423.202,147.847 421.865 C 148.186 421.240,148.388 420.654,148.296 420.563 C 148.205 420.471,147.921 420.856,147.665 421.417 M83.178 423.500 L 81.800 425.000 83.300 423.622 C 84.696 422.338,84.984 422.000,84.678 422.000 C 84.612 422.000,83.937 422.675,83.178 423.500 M78.575 427.700 L 77.400 429.000 78.700 427.825 C 79.415 427.179,80.000 426.594,80.000 426.525 C 80.000 426.216,79.670 426.488,78.575 427.700 M65.775 439.300 L 64.600 440.600 65.900 439.425 C 67.112 438.330,67.384 438.000,67.075 438.000 C 67.006 438.000,66.421 438.585,65.775 439.300 M61.178 443.500 L 59.800 445.000 61.300 443.622 C 62.696 442.338,62.984 442.000,62.678 442.000 C 62.612 442.000,61.937 442.675,61.178 443.500 M56.975 447.300 L 55.800 448.600 57.100 447.425 C 57.815 446.779,58.400 446.194,58.400 446.125 C 58.400 445.816,58.070 446.088,56.975 447.300 M52.975 450.900 L 51.800 452.200 53.100 451.025 C 53.815 450.379,54.400 449.794,54.400 449.725 C 54.400 449.416,54.070 449.688,52.975 450.900 M49.375 454.100 L 48.200 455.400 49.500 454.225 C 50.215 453.579,50.800 452.994,50.800 452.925 C 50.800 452.616,50.470 452.888,49.375 454.100 M45.578 457.500 L 44.200 459.000 45.700 457.622 C 46.525 456.863,47.200 456.188,47.200 456.122 C 47.200 455.816,46.862 456.104,45.578 457.500 M42.175 460.500 L 41.000 461.800 42.300 460.625 C 43.015 459.979,43.600 459.394,43.600 459.325 C 43.600 459.016,43.270 459.288,42.175 460.500 M124.600 468.400 C 124.259 469.060,124.069 469.600,124.179 469.600 C 124.289 469.600,124.659 469.060,125.000 468.400 C 125.341 467.740,125.531 467.200,125.421 467.200 C 125.311 467.200,124.941 467.740,124.600 468.400 " stroke="none" fill="#999999" fill-rule="evenodd"></path><path id="path3" d="M251.693 29.200 C 251.693 29.970,251.775 30.285,251.876 29.900 C 251.976 29.515,251.976 28.885,251.876 28.500 C 251.775 28.115,251.693 28.430,251.693 29.200 M229.785 138.100 L 227.800 140.200 229.900 138.215 C 231.851 136.371,232.183 136.000,231.885 136.000 C 231.822 136.000,230.877 136.945,229.785 138.100 M301.381 217.300 L 299.800 219.000 301.500 217.419 C 303.081 215.948,303.384 215.600,303.081 215.600 C 303.016 215.600,302.251 216.365,301.381 217.300 M232.400 275.000 C 231.428 275.990,230.723 276.800,230.833 276.800 C 230.943 276.800,231.828 275.990,232.800 275.000 C 233.772 274.010,234.477 273.200,234.367 273.200 C 234.257 273.200,233.372 274.010,232.400 275.000 M116.181 392.500 L 114.600 394.200 116.300 392.619 C 117.881 391.148,118.184 390.800,117.881 390.800 C 117.816 390.800,117.051 391.565,116.181 392.500 " stroke="none" fill="#747c78" fill-rule="evenodd"></path><path id="path4" d="M251.709 26.400 C 251.709 27.390,251.787 27.795,251.882 27.300 C 251.978 26.805,251.978 25.995,251.882 25.500 C 251.787 25.005,251.709 25.410,251.709 26.400 M261.340 31.600 C 261.340 33.470,261.409 34.235,261.493 33.300 C 261.577 32.365,261.577 30.835,261.493 29.900 C 261.409 28.965,261.340 29.730,261.340 31.600 M251.701 31.800 C 251.705 32.680,251.787 32.993,251.883 32.495 C 251.979 31.998,251.975 31.278,251.875 30.895 C 251.775 30.513,251.696 30.920,251.701 31.800 M245.381 46.900 L 243.800 48.600 245.500 47.019 C 247.081 45.548,247.384 45.200,247.081 45.200 C 247.016 45.200,246.251 45.965,245.381 46.900 M259.744 50.800 C 259.744 52.890,259.812 53.745,259.894 52.700 C 259.976 51.655,259.976 49.945,259.894 48.900 C 259.812 47.855,259.744 48.710,259.744 50.800 M213.781 56.500 L 212.200 58.200 213.900 56.619 C 215.481 55.148,215.784 54.800,215.481 54.800 C 215.416 54.800,214.651 55.565,213.781 56.500 M230.691 61.089 C 231.401 61.177,232.661 61.179,233.491 61.092 C 234.321 61.005,233.740 60.933,232.200 60.931 C 230.660 60.929,229.981 61.000,230.691 61.089 M215.775 67.700 L 214.600 69.000 215.900 67.825 C 216.615 67.179,217.200 66.594,217.200 66.525 C 217.200 66.216,216.870 66.488,215.775 67.700 M205.701 90.600 C 205.705 91.480,205.787 91.793,205.883 91.295 C 205.979 90.798,205.975 90.078,205.875 89.695 C 205.775 89.313,205.696 89.720,205.701 90.600 M195.301 94.200 C 195.305 95.080,195.387 95.393,195.483 94.895 C 195.579 94.398,195.575 93.678,195.475 93.295 C 195.375 92.913,195.296 93.320,195.301 94.200 M205.701 95.400 C 205.705 96.280,205.787 96.593,205.883 96.095 C 205.979 95.598,205.975 94.878,205.875 94.495 C 205.775 94.113,205.696 94.520,205.701 95.400 M252.378 111.900 L 251.000 113.400 252.500 112.022 C 253.896 110.738,254.184 110.400,253.878 110.400 C 253.812 110.400,253.137 111.075,252.378 111.900 M331.700 154.676 C 332.085 154.776,332.715 154.776,333.100 154.676 C 333.485 154.575,333.170 154.493,332.400 154.493 C 331.630 154.493,331.315 154.575,331.700 154.676 M325.301 161.400 C 325.305 162.280,325.387 162.593,325.483 162.095 C 325.579 161.598,325.575 160.878,325.475 160.495 C 325.375 160.113,325.296 160.520,325.301 161.400 M386.000 192.600 C 386.746 193.370,387.447 194.000,387.557 194.000 C 387.667 194.000,387.146 193.370,386.400 192.600 C 385.654 191.830,384.953 191.200,384.843 191.200 C 384.733 191.200,385.254 191.830,386.000 192.600 M327.578 194.700 L 326.200 196.200 327.700 194.822 C 329.096 193.538,329.384 193.200,329.078 193.200 C 329.012 193.200,328.337 193.875,327.578 194.700 M384.109 211.200 C 384.109 212.190,384.187 212.595,384.282 212.100 C 384.378 211.605,384.378 210.795,384.282 210.300 C 384.187 209.805,384.109 210.210,384.109 211.200 M395.714 213.000 C 395.717 214.100,395.795 214.503,395.887 213.895 C 395.979 213.286,395.977 212.386,395.882 211.895 C 395.787 211.403,395.711 211.900,395.714 213.000 M202.540 217.200 C 202.540 219.070,202.609 219.835,202.693 218.900 C 202.777 217.965,202.777 216.435,202.693 215.500 C 202.609 214.565,202.540 215.330,202.540 217.200 M301.505 237.883 C 302.002 237.979,302.722 237.975,303.105 237.875 C 303.487 237.775,303.080 237.696,302.200 237.701 C 301.320 237.705,301.007 237.787,301.505 237.883 M227.100 249.082 C 227.595 249.178,228.405 249.178,228.900 249.082 C 229.395 248.987,228.990 248.909,228.000 248.909 C 227.010 248.909,226.605 248.987,227.100 249.082 M347.305 250.287 C 347.914 250.379,348.814 250.377,349.305 250.282 C 349.797 250.187,349.300 250.111,348.200 250.114 C 347.100 250.117,346.697 250.195,347.305 250.287 M351.105 250.283 C 351.602 250.379,352.322 250.375,352.705 250.275 C 353.087 250.175,352.680 250.096,351.800 250.101 C 350.920 250.105,350.607 250.187,351.105 250.283 M228.800 278.600 C 227.828 279.590,227.123 280.400,227.233 280.400 C 227.343 280.400,228.228 279.590,229.200 278.600 C 230.172 277.610,230.877 276.800,230.767 276.800 C 230.657 276.800,229.772 277.610,228.800 278.600 M224.575 283.300 L 223.400 284.600 224.700 283.425 C 225.912 282.330,226.184 282.000,225.875 282.000 C 225.806 282.000,225.221 282.585,224.575 283.300 M217.785 290.500 L 215.800 292.600 217.900 290.615 C 219.055 289.523,220.000 288.578,220.000 288.515 C 220.000 288.217,219.629 288.549,217.785 290.500 M206.981 302.100 L 205.400 303.800 207.100 302.219 C 208.035 301.349,208.800 300.584,208.800 300.519 C 208.800 300.216,208.452 300.519,206.981 302.100 M172.900 302.276 C 173.285 302.376,173.915 302.376,174.300 302.276 C 174.685 302.175,174.370 302.093,173.600 302.093 C 172.830 302.093,172.515 302.175,172.900 302.276 M201.877 307.453 C 200.819 308.462,200.020 309.354,200.101 309.434 C 200.182 309.515,201.131 308.686,202.209 307.591 C 204.668 305.095,204.446 305.003,201.877 307.453 M182.093 310.800 C 182.093 311.570,182.175 311.885,182.276 311.500 C 182.376 311.115,182.376 310.485,182.276 310.100 C 182.175 309.715,182.093 310.030,182.093 310.800 M172.905 318.687 C 173.514 318.779,174.414 318.777,174.905 318.682 C 175.397 318.587,174.900 318.511,173.800 318.514 C 172.700 318.517,172.297 318.595,172.905 318.687 M119.986 388.700 L 117.800 391.000 120.100 388.814 C 122.237 386.782,122.583 386.400,122.286 386.400 C 122.224 386.400,121.189 387.435,119.986 388.700 M109.775 398.500 L 108.600 399.800 109.900 398.625 C 111.112 397.530,111.384 397.200,111.075 397.200 C 111.006 397.200,110.421 397.785,109.775 398.500 M96.575 410.900 L 95.400 412.200 96.700 411.025 C 97.415 410.379,98.000 409.794,98.000 409.725 C 98.000 409.416,97.670 409.688,96.575 410.900 M91.578 415.500 L 90.200 417.000 91.700 415.622 C 93.096 414.338,93.384 414.000,93.078 414.000 C 93.012 414.000,92.337 414.675,91.578 415.500 M86.575 420.100 L 85.400 421.400 86.700 420.225 C 87.415 419.579,88.000 418.994,88.000 418.925 C 88.000 418.616,87.670 418.888,86.575 420.100 M81.978 424.300 L 80.600 425.800 82.100 424.422 C 83.496 423.138,83.784 422.800,83.478 422.800 C 83.412 422.800,82.737 423.475,81.978 424.300 M77.375 428.500 L 76.200 429.800 77.500 428.625 C 78.215 427.979,78.800 427.394,78.800 427.325 C 78.800 427.016,78.470 427.288,77.375 428.500 M72.975 432.500 L 71.800 433.800 73.100 432.625 C 73.815 431.979,74.400 431.394,74.400 431.325 C 74.400 431.016,74.070 431.288,72.975 432.500 M68.575 436.500 L 67.400 437.800 68.700 436.625 C 69.415 435.979,70.000 435.394,70.000 435.325 C 70.000 435.016,69.670 435.288,68.575 436.500 M129.000 459.200 C 128.659 459.860,128.469 460.400,128.579 460.400 C 128.689 460.400,129.059 459.860,129.400 459.200 C 129.741 458.540,129.931 458.000,129.821 458.000 C 129.711 458.000,129.341 458.540,129.000 459.200 " stroke="none" fill="#7c7474" fill-rule="evenodd"></path></g></svg>