<svg xmlns="http://www.w3.org/2000/svg" viewBox="0 0 512 512">
  <path fill="currentColor" d="M352 64H32C14.33 64 0 78.33 0 96c0 17.67 14.33 32 32 32h92.25L32 236.82V240c0 17.67 14.33 32 32 32s32-14.33 32-32v-2.04l112-112H352c17.67 0 32-14.33 32-32S369.67 64 352 64zM160 32c0-17.67-14.33-32-32-32S96 14.33 96 32s14.33 32 32 32 32-14.33 32-32zM32 416h320c17.67 0 32 14.33 32 32s-14.33 32-32 32H32c-17.67 0-32-14.33-32-32s14.33-32 32-32zm276.54-154.21l-144-144L32 272.04V272c0 17.67 14.33 32 32 32s32-14.33 32-32v-3.18L241.75 128H352c17.67 0 32-14.33 32-32s-14.33-32-32-32H235.18L308.54 261.79zm-148.54 32c-17.67 0-32 14.33-32 32s14.33 32 32 32 32-14.33 32-32-14.33-32-32-32z"/>
</svg>